<?xml version="1.0" encoding="UTF-8"?>
<svg version="1.1" xmlns="http://www.w3.org/2000/svg" width="15" height="15">
<path d="M0 0 C2.4375 1.5625 2.4375 1.5625 4 4 C4.56288002 7.94016013 4.60396028 10.05782196 2.4375 13.4375 C-0.94217804 15.60396028 -3.05983987 15.56288002 -7 15 C-9.4375 13.4375 -9.4375 13.4375 -11 11 C-11.56288002 7.05983987 -11.60396028 4.94217804 -9.4375 1.5625 C-6.05782196 -0.60396028 -3.94016013 -0.56288002 0 0 Z M-7.8125 3.4375 C-8.534375 4.283125 -9.25625 5.12875 -10 6 C-8.9591264 10.50923349 -8.9591264 10.50923349 -5.6875 13.5625 C-2.93125654 14.25139547 -2.93125654 14.25139547 -0.25 12.875 C2.04236514 11.20398032 2.04236514 11.20398032 3 9.125 C3 5.96367657 1.97056425 4.43036258 0 2 C-3.82073122 0.19017995 -4.58256187 0.63822029 -7.8125 3.4375 Z " fill="#6A53F6" transform="translate(11,0)"/>
<path d="M0 0 C2.51570636 0.97382182 3.73944098 1.46151135 4.9375 3.9375 C5 6 5 6 3.6875 7.75 C2 9 2 9 0 9 C0.556875 7.88625 0.556875 7.88625 1.125 6.75 C2.29515863 4.05716353 2.29515863 4.05716353 1.125 1.6875 C0.75375 1.130625 0.3825 0.57375 0 0 Z " fill="#6A52F7" transform="translate(6,3)"/>
</svg>
